<svg xmlns="http://www.w3.org/2000/svg" viewBox="0 0 120 120" width="120" height="120">
  <!-- Central shield -->
  <path d="M30 35 L60 25 L90 35 L90 85 L60 95 L30 85 Z" fill="#166534" stroke="#2d5016" stroke-width="1"/>
  
  <!-- Sun in shield -->
  <circle cx="60" cy="50" r="8" fill="#fbbf24"/>
  <g stroke="#fbbf24" stroke-width="1.5" fill="none">
    <line x1="60" y1="38" x2="60" y2="42"/>
    <line x1="60" y1="58" x2="60" y2="62"/>
    <line x1="48" y1="50" x2="52" y2="50"/>
    <line x1="68" y1="50" x2="72" y2="50"/>
    <line x1="52" y1="42" x2="55" y2="45"/>
    <line x1="65" y1="55" x2="68" y2="58"/>
    <line x1="68" y1="42" x2="65" y2="45"/>
    <line x1="55" y1="55" x2="52" y2="58"/>
  </g>
  
  <!-- Crossed elements -->
  <line x1="50" y1="65" x2="70" y2="65" stroke="#fbbf24" stroke-width="1.5"/>
  <line x1="60" y1="58" x2="60" y2="75" stroke="#fbbf24" stroke-width="1.5"/>
  
  <!-- Left flag elements -->
  <path d="M15 40 L25 48 L15 56 L25 64 L15 72" fill="#ff6b35"/>
  <path d="M25 48 L30 40 L35 48 L30 56 Z" fill="#22c55e"/>
  <path d="M25 64 L30 56 L35 64 L30 72 Z" fill="#22c55e"/>
  
  <!-- Right flag elements -->
  <path d="M85 48 L90 40 L95 48 L90 56 Z" fill="#22c55e"/>
  <path d="M85 64 L90 56 L95 64 L90 72 Z" fill="#22c55e"/>
  <path d="M95 40 L105 48 L95 56 L105 64 L95 72" fill="#ff6b35"/>
  
  <!-- Banner -->
  <path d="M20 85 L100 85 L95 95 L25 95 Z" fill="#fbbf24"/>
</svg>
